<?xml version="1.0" encoding="UTF-8"?><svg id="Layer_2" xmlns="http://www.w3.org/2000/svg" viewBox="0 0 186.54 312.86"><defs><style>.cls-1{fill:#846e3f;}.cls-2{fill:#2f2e2c;}</style></defs><g id="Layer_1-2"><path class="cls-2" d="M93.69,200.86c-11.82,3.08-22.07,8.74-29.33,18.8-6.43,8.9-6.29,18.31-.95,27.69,.74,1.29,2.25,2.92,3.51,3.01,13.81,1.02,27.56,1.41,39.27-8l-.03-.1c.22,.49,.68,1.01,.63,1.47-1.28,12.01,2.29,22.35,11.89,32.04-14.27,8.45-28.02,16.59-41.17,24.37,17.71,6.47,61.48-22.48,73.5-48.86,5.44,3.26,10.64,7.57,16.61,9.61,5.88,2.01,12.56,1.71,18.91,2.42-2.78,5.85-8.43,10.38-15.58,9.48-14.32-1.8-24.38,3.44-34.47,13.42-13.43,13.29-31.98,18.16-49.29,24.85-7.23,2.8-13.35,2.23-20.08-.94-21.41-10.1-38.18-24.58-44.49-48.23-1.66-6.22-.71-13.22-.43-19.83,.26-6.15,3.64-9.85,9.86-11.49,5.45-1.43,10.63-3.89,15.93-5.89l-.23-1.53c-5.29,.49-10.57,.98-16.35,1.52,7.49-13.65,18.8-22.72,33.56-29.47-23.03-.6-50.06,32.26-51.07,60.86-4.53-1.74-7.31-4.4-7.51-9.47-.45-11.35,3.46-21.12,10.59-29.7,8.43-10.13,19.13-16.89,31.66-20.82,1.58-.5,3.17-.97,4.74-1.48,.13-.04,.21-.25,1.57-1.91-14.61-.64-28.05-1.23-41.48-1.83,5.5-4.13,11.32-8.44,17.08-12.83,9.51-7.25,9.35-13.62-1.39-21.25,2.72-.18,4.6-.49,6.47-.4,11.32,.52,22.67,.82,33.95,1.9,3.41,.32,7.21,2.2,9.78,4.53,5.89,5.33,4.08,13.17-3.61,14.89-11.39,2.55-23.02,4.01-34.52,6.1-5.51,1-10.96,2.37-16.44,3.57l.02,1.46c1.28,.33,2.59,1.01,3.85,.94,15.5-.89,31.01-1.73,46.48-2.95,4.93-.39,10.03-1.24,14.61-3.02,9.51-3.71,11.96-12.11,5.63-20.15-4.32-5.49-9.89-10.01-14.98-14.88-4.67-4.46-9.46-8.81-14.2-13.21l.75-1.18c1.39,.57,2.8,1.07,4.15,1.71,8.26,3.94,16.84,4.72,25.44,1.73,10.15-3.53,13.97-13.18,9.55-23.03-.52-1.15-1.07-2.28-1.99-4.25,5.44,0,10.25,.04,15.05-.04,.65-.01,1.28-.59,1.68,.17-11.29-2.42-22.59-4.85-34.74-7.45,11.25,6.92,14.59,13.71,11.38,21.91-2.83,7.2-11.01,11.31-18.75,9.41-7.26-1.78-11.65-8.2-11.13-15.95,4.47-.65,9.17-.6,13.08-2.34,1.19-.53,.18-5.99,.18-9.96-4.98,2.78-9.3,5.15-13.58,7.6-6.17,3.53-12.56,4.18-19.29,1.82-6.82-2.39-13.72-4.53-20.47-7.1-4.69-1.78-5.08-3.77-1.6-7.33,5.82-5.94,12.98-9.46,21.55-10.56-2.44,1.91-4.88,3.83-7.32,5.74l.89,1.22c.94-.15,2.14,.01,2.79-.51,16.29-13.09,35.71-14.55,55.08-13.11,23.85,1.76,47.56,5.43,71.3,8.51,6.39,.83,8.14,5.82,4.33,11.63-3.9,5.94-10.05,8.56-16.6,10.38-1.59,.44-3.24,.68-5.37,1.12,14.35,13.42,18.69,30.39,18.5,48.68-.16,15.97-1.66,31.93-2.1,47.9-.21,7.58,.28,15.24,1.18,22.78,1.22,10.24,4.86,19.33,15.61,24.19-16.12,2.16-32.24-15.09-30.62-31.61,2.09-21.31,3.23-42.67,.46-64-.69-5.31-2.2-10.52-3.33-15.78l-1.98,.41c.23,1.19,.56,2.36,.68,3.56,2.37,24.86,3.77,49.73-2.09,74.33-3.92,16.43-12.05,30.56-24.48,42.67-9.82-10.47-12.25-22.35-8.36-35.62,1.98-6.74,4.91-13.24,6.47-20.06,1.33-5.81,1.31-11.92,1.36-18.25-5.98,29.73-21.07,49.32-53.9,50.27-3.35-11.71-.67-21.78,6.99-29.88,4.98-5.26,11.66-8.92,17.58-13.29,.79-.29,1.58-.58,2.37-.87l-.17-.62-3.04,.39Zm-53.31,32.46c-6.45,1.32-8.66,5.56-9.96,11.34-5.72,25.51,19.52,51.88,39.89,56.39,0-7.49,.14-15.09-.04-22.68-.17-7.37-.67-14.73-1.03-22.09l-2.15-.14c-1.34,10.48-2.68,20.95-4.02,31.38-21.78-6.51-29.89-25.64-22.69-54.21Zm71.6-52.45c10.66-.76,21.38-.91,30.8-8.98-3.21-.26-5.16-.42-7.66-.63,8.98-11.77,9.48-23.61,1.46-35.34-4.06-5.94-9.09-11.13-17.44-11.4,4.01,4.39,7.95,8.08,11.11,12.34,3.94,5.32,6.23,11.35,4.69,18.24-1.69,7.57-6.44,12.68-12.88,16.62-6.25,3.83-12.33,4.64-18.1-.89-.86,4.4-1.55,7.91-2.12,10.8,3.18,4.8,6.25,9.43,10.13,15.29v-16.05Z"/><path class="cls-1" d="M63.1,56.62l10.95-1.28c-6.22-6.64-9.72-13.33-6.97-21.69,2.66-8.07,7.79-11.14,17.52-10.94-.48-2.95-1.99-6.31-1.15-8.92,.72-2.24,4.14-3.61,6.36-5.36-1.17,3.15-2.35,6.3-4,10.73,8.46-5.66,8.49-5.65,11.05,1.21V4.79c-2.86,1.5-5.01,2.63-7.16,3.75,2.21-2.92,4.13-6.21,6.88-8.49,.6-.5,4.35,2.4,6.35,4.1,1.97,1.67,3.42,3.93,5.31,5.71,3.83,3.59,4.66,7.4,1.34,11.74-.19,.35-.37,.69-.56,1.04l1.38-.08c6.96-.55,12.58,1.84,15.74,8.2,4.48,9.02,1.66,16.9-5.61,24.35,4.25,.73,7.59,1.3,11.69,2-2.04-8.88-2.33-17,5.28-22.75,7.73-5.84,14.91-1.54,22.46,2.05-.11-2.3-.85-4.57-.13-6.18,1.08-2.42,2.82-5.67,4.93-6.27,5.48-1.55,11.32-1.94,17.03-2.57,1.1-.12,2.3,.74,4.06,1.36-2.04,3-3.84,5.53-5.52,8.14-9.87,15.37-19.87,30.66-29.43,46.22-2.15,3.51-4.24,4.06-7.99,3.74-18.86-1.61-37.74-3.76-56.63-3.97-13.03-.15-26.09,2.53-39.67,4C34.67,62.35,21.96,42.64,8.74,22.12c2.3-.24,4.01-.65,5.7-.55,2.59,.16,5.16,.65,7.73,1.05q10.16,1.59,12.28,11.37c.11,.52,.44,.99,.44,.99,4.29-1.37,8.38-3.6,12.57-3.81,9.39-.47,16.68,8.31,15.91,18.22-.17,2.21-.58,4.41-.87,6.61-.04,.31-.08,.62-.13,.94l.73-.31Zm-8.17,6.55c.83-5.88,1.7-12.06,2.59-18.24,.78-5.4-2.25-7.89-6.96-8.85-5.45-1.11-10.13,.35-14.37,4.89,2.2,1.82,4.14,3.43,6.1,5.05,.85-.46,1.46-.94,2.14-1.14,2.85-.83,6.42-3.02,8.45-2.05,3.82,1.83,2.42,5.99,1.19,9.37-1.73,4.75-3.53,9.48-5.56,14.91,13.6-1.94,26.71-3.81,39.78-5.68-3.07-10.45-14.13-20.86-1.73-32.59-5.26-1.2-9.57,.5-12.58,5.19-2.9,4.52-2.64,9.18,.11,13.66,2.2,3.57,4.63,7,7.18,10.82-9.25,1.63-17.96,3.17-26.34,4.65Zm83.87-.29c-11.31-.6-21.76-6.41-33.35-1.58,13.09,2.01,25.36,3.89,38.24,5.86-.26-1.35-.32-2.74-.8-3.97-1.48-3.83-3.63-7.48-4.5-11.43-.61-2.77,.44-5.91,.75-8.88,2.93,.38,5.9,.62,8.79,1.21,1.12,.23,2.09,1.26,3.33,2.06,2.08-1.87,3.93-3.52,5.81-5.2-5.45-5.15-12.05-6.62-16.73-4.09-5.21,2.81-6.76,7.51-4.81,15.36,.87,3.5,2.1,6.9,3.26,10.66Zm-21.59-12.22c5.53-2.94,7.96-10.02,5.47-15.96-2.68-6.38-8.66-8.77-16.62-6.64,11.12,2.07,11.36,2.56,11.16,22.6Zm62.25-25.14c-9.91-.4-13.44,.63-16.25,4.03,2.15,.7,5.62,.81,6.57,2.41,.95,1.6-.6,4.7-1.06,7.14l.82,.21c3.14-4.37,6.28-8.73,9.92-13.8Zm-164.14-.89l-.71,1.67,8.59,11.91c-2.78-7.53,.96-9.09,8.02-8.04l-.55-2.19-15.34-3.35Zm18.28,11.29l.21-.33-.36-.04,.14,.37Z"/><path class="cls-2" d="M74.22,151.88c-9.33-.73-18.66-1.58-28-2.17-6.83-.43-13.71-.95-20.53-.66-8.24,.34-10.79,4.09-9.16,12.07,.29,1.41,.55,2.82,.35,4.48-7.56-6.95-14.08-14.66-16.43-24.86-1.87-8.12,2.37-15.54,10.37-19.53,2.05-1.02,3.27-1.76,3.4-4.63,.2-4.62,4.28-6.49,9.11-4.92,8.24,2.68,16.47,5.42,24.73,8.04,4.95,1.57,5.69,3.1,4.6,8.85,7.76,7.31,15.1,14.22,22.44,21.12l-.87,2.22Zm-35.05-23.23l.92-1.68c-2.11-1.22-4.58-3.8-6.26-3.35-2.73,.72-4.95,3.41-7.38,5.27l.8,1.14c3.97-.46,7.94-.92,11.91-1.37Z"/></g></svg>